<mxfile host="app.diagrams.net" agent="Mozilla/5.0 (X11; Linux x86_64) AppleWebKit/537.36 (KHTML, like Gecko) Chrome/136.0.0.0 Safari/537.36" version="27.0.5">
  <diagram name="PÃ¡gina-1" id="4EkozkgEtxxzj5Qhaqsl">
    <mxGraphModel dx="2325" dy="831" grid="1" gridSize="10" guides="1" tooltips="1" connect="1" arrows="1" fold="1" page="1" pageScale="1" pageWidth="827" pageHeight="1169" math="0" shadow="0">
      <root>
        <mxCell id="0" />
        <mxCell id="1" parent="0" />
        <mxCell id="OFhxYfGw3C2y7uMmttlE-1" value="AWS Cloud" style="points=[[0,0],[0.25,0],[0.5,0],[0.75,0],[1,0],[1,0.25],[1,0.5],[1,0.75],[1,1],[0.75,1],[0.5,1],[0.25,1],[0,1],[0,0.75],[0,0.5],[0,0.25]];outlineConnect=0;gradientColor=none;html=1;whiteSpace=wrap;fontSize=12;fontStyle=0;container=1;pointerEvents=0;collapsible=0;recursiveResize=0;shape=mxgraph.aws4.group;grIcon=mxgraph.aws4.group_aws_cloud_alt;strokeColor=#232F3E;fillColor=none;verticalAlign=top;align=left;spacingLeft=30;fontColor=#232F3E;dashed=0;" vertex="1" parent="1">
          <mxGeometry x="320" y="70" width="1490" height="1070" as="geometry" />
        </mxCell>
        <mxCell id="OFhxYfGw3C2y7uMmttlE-23" value="VPC" style="points=[[0,0],[0.25,0],[0.5,0],[0.75,0],[1,0],[1,0.25],[1,0.5],[1,0.75],[1,1],[0.75,1],[0.5,1],[0.25,1],[0,1],[0,0.75],[0,0.5],[0,0.25]];outlineConnect=0;gradientColor=none;html=1;whiteSpace=wrap;fontSize=12;fontStyle=0;container=1;pointerEvents=0;collapsible=0;recursiveResize=0;shape=mxgraph.aws4.group;grIcon=mxgraph.aws4.group_vpc2;strokeColor=#8C4FFF;fillColor=none;verticalAlign=top;align=left;spacingLeft=30;fontColor=#AAB7B8;dashed=0;" vertex="1" parent="OFhxYfGw3C2y7uMmttlE-1">
          <mxGeometry x="80" y="180" width="1310" height="720" as="geometry" />
        </mxCell>
        <mxCell id="OFhxYfGw3C2y7uMmttlE-59" value="Private subnet" style="points=[[0,0],[0.25,0],[0.5,0],[0.75,0],[1,0],[1,0.25],[1,0.5],[1,0.75],[1,1],[0.75,1],[0.5,1],[0.25,1],[0,1],[0,0.75],[0,0.5],[0,0.25]];outlineConnect=0;gradientColor=none;html=1;whiteSpace=wrap;fontSize=12;fontStyle=0;container=1;pointerEvents=0;collapsible=0;recursiveResize=0;shape=mxgraph.aws4.group;grIcon=mxgraph.aws4.group_security_group;grStroke=0;strokeColor=#00A4A6;fillColor=#E6F6F7;verticalAlign=top;align=left;spacingLeft=30;fontColor=#147EBA;dashed=0;" vertex="1" parent="OFhxYfGw3C2y7uMmttlE-23">
          <mxGeometry x="1030" y="390" width="130" height="135.5" as="geometry" />
        </mxCell>
        <mxCell id="OFhxYfGw3C2y7uMmttlE-61" value="RDS" style="text;html=1;align=center;verticalAlign=middle;resizable=0;points=[];autosize=1;strokeColor=none;fillColor=none;" vertex="1" parent="OFhxYfGw3C2y7uMmttlE-59">
          <mxGeometry x="40" y="105.5" width="50" height="30" as="geometry" />
        </mxCell>
        <mxCell id="OFhxYfGw3C2y7uMmttlE-65" style="edgeStyle=orthogonalEdgeStyle;rounded=0;orthogonalLoop=1;jettySize=auto;html=1;" edge="1" parent="OFhxYfGw3C2y7uMmttlE-23" source="OFhxYfGw3C2y7uMmttlE-44" target="OFhxYfGw3C2y7uMmttlE-48">
          <mxGeometry relative="1" as="geometry" />
        </mxCell>
        <mxCell id="OFhxYfGw3C2y7uMmttlE-44" value="Transcribe Group" style="fillColor=#EFF0F3;strokeColor=none;dashed=0;verticalAlign=top;fontStyle=0;fontColor=#232F3D;whiteSpace=wrap;html=1;" vertex="1" parent="OFhxYfGw3C2y7uMmttlE-23">
          <mxGeometry x="170" y="17.5" width="160" height="312.5" as="geometry" />
        </mxCell>
        <mxCell id="OFhxYfGw3C2y7uMmttlE-63" style="edgeStyle=orthogonalEdgeStyle;rounded=0;orthogonalLoop=1;jettySize=auto;html=1;exitX=1;exitY=0.5;exitDx=0;exitDy=0;exitPerimeter=0;entryX=0.006;entryY=0.482;entryDx=0;entryDy=0;entryPerimeter=0;" edge="1" parent="OFhxYfGw3C2y7uMmttlE-23" source="OFhxYfGw3C2y7uMmttlE-28" target="OFhxYfGw3C2y7uMmttlE-44">
          <mxGeometry relative="1" as="geometry">
            <Array as="points">
              <mxPoint x="88" y="174" />
              <mxPoint x="171" y="174" />
            </Array>
          </mxGeometry>
        </mxCell>
        <mxCell id="OFhxYfGw3C2y7uMmttlE-28" value="" style="sketch=0;points=[[0,0,0],[0.25,0,0],[0.5,0,0],[0.75,0,0],[1,0,0],[0,1,0],[0.25,1,0],[0.5,1,0],[0.75,1,0],[1,1,0],[0,0.25,0],[0,0.5,0],[0,0.75,0],[1,0.25,0],[1,0.5,0],[1,0.75,0]];outlineConnect=0;fontColor=#232F3E;fillColor=#E7157B;strokeColor=#ffffff;dashed=0;verticalLabelPosition=bottom;verticalAlign=top;align=center;html=1;fontSize=12;fontStyle=0;aspect=fixed;shape=mxgraph.aws4.resourceIcon;resIcon=mxgraph.aws4.api_gateway;" vertex="1" parent="OFhxYfGw3C2y7uMmttlE-23">
          <mxGeometry x="10" y="441" width="78" height="78" as="geometry" />
        </mxCell>
        <mxCell id="OFhxYfGw3C2y7uMmttlE-29" value="" style="outlineConnect=0;dashed=0;verticalLabelPosition=bottom;verticalAlign=top;align=center;html=1;shape=mxgraph.aws3.lambda_function;fillColor=#F58534;gradientColor=none;" vertex="1" parent="OFhxYfGw3C2y7uMmttlE-23">
          <mxGeometry x="210" y="40" width="69" height="72" as="geometry" />
        </mxCell>
        <mxCell id="OFhxYfGw3C2y7uMmttlE-32" value="" style="sketch=0;points=[[0,0,0],[0.25,0,0],[0.5,0,0],[0.75,0,0],[1,0,0],[0,1,0],[0.25,1,0],[0.5,1,0],[0.75,1,0],[1,1,0],[0,0.25,0],[0,0.5,0],[0,0.75,0],[1,0.25,0],[1,0.5,0],[1,0.75,0]];outlineConnect=0;fontColor=#232F3E;fillColor=#01A88D;strokeColor=#ffffff;dashed=0;verticalLabelPosition=bottom;verticalAlign=top;align=center;html=1;fontSize=12;fontStyle=0;aspect=fixed;shape=mxgraph.aws4.resourceIcon;resIcon=mxgraph.aws4.bedrock;" vertex="1" parent="OFhxYfGw3C2y7uMmttlE-23">
          <mxGeometry x="210" y="140" width="78" height="78" as="geometry" />
        </mxCell>
        <mxCell id="OFhxYfGw3C2y7uMmttlE-37" value="" style="sketch=0;points=[[0,0,0],[0.25,0,0],[0.5,0,0],[0.75,0,0],[1,0,0],[0,1,0],[0.25,1,0],[0.5,1,0],[0.75,1,0],[1,1,0],[0,0.25,0],[0,0.5,0],[0,0.75,0],[1,0.25,0],[1,0.5,0],[1,0.75,0]];outlineConnect=0;fontColor=#232F3E;fillColor=#ED7100;strokeColor=#ffffff;dashed=0;verticalLabelPosition=bottom;verticalAlign=top;align=center;html=1;fontSize=12;fontStyle=0;aspect=fixed;shape=mxgraph.aws4.resourceIcon;resIcon=mxgraph.aws4.ecr;" vertex="1" parent="OFhxYfGw3C2y7uMmttlE-23">
          <mxGeometry x="620" y="478.87" width="80" height="80" as="geometry" />
        </mxCell>
        <mxCell id="OFhxYfGw3C2y7uMmttlE-40" value="" style="sketch=0;points=[[0,0,0],[0.25,0,0],[0.5,0,0],[0.75,0,0],[1,0,0],[0,1,0],[0.25,1,0],[0.5,1,0],[0.75,1,0],[1,1,0],[0,0.25,0],[0,0.5,0],[0,0.75,0],[1,0.25,0],[1,0.5,0],[1,0.75,0]];outlineConnect=0;fontColor=#232F3E;fillColor=#01A88D;strokeColor=#ffffff;dashed=0;verticalLabelPosition=bottom;verticalAlign=top;align=center;html=1;fontSize=12;fontStyle=0;aspect=fixed;shape=mxgraph.aws4.resourceIcon;resIcon=mxgraph.aws4.transcribe;" vertex="1" parent="OFhxYfGw3C2y7uMmttlE-23">
          <mxGeometry x="210" y="230" width="78" height="78" as="geometry" />
        </mxCell>
        <mxCell id="OFhxYfGw3C2y7uMmttlE-47" value="" style="group" vertex="1" connectable="0" parent="OFhxYfGw3C2y7uMmttlE-23">
          <mxGeometry x="831" y="480.87" width="130" height="108" as="geometry" />
        </mxCell>
        <mxCell id="OFhxYfGw3C2y7uMmttlE-17" value="" style="sketch=0;points=[[0,0,0],[0.25,0,0],[0.5,0,0],[0.75,0,0],[1,0,0],[0,1,0],[0.25,1,0],[0.5,1,0],[0.75,1,0],[1,1,0],[0,0.25,0],[0,0.5,0],[0,0.75,0],[1,0.25,0],[1,0.5,0],[1,0.75,0]];outlineConnect=0;fontColor=#232F3E;fillColor=#01A88D;strokeColor=#ffffff;dashed=0;verticalLabelPosition=bottom;verticalAlign=top;align=center;html=1;fontSize=12;fontStyle=0;aspect=fixed;shape=mxgraph.aws4.resourceIcon;resIcon=mxgraph.aws4.bedrock;" vertex="1" parent="OFhxYfGw3C2y7uMmttlE-47">
          <mxGeometry x="26" width="78" height="78" as="geometry" />
        </mxCell>
        <mxCell id="OFhxYfGw3C2y7uMmttlE-43" value="BEDROCK NOVA" style="text;html=1;align=center;verticalAlign=middle;resizable=0;points=[];autosize=1;strokeColor=none;fillColor=none;" vertex="1" parent="OFhxYfGw3C2y7uMmttlE-47">
          <mxGeometry y="78" width="130" height="30" as="geometry" />
        </mxCell>
        <mxCell id="OFhxYfGw3C2y7uMmttlE-16" value="" style="outlineConnect=0;dashed=0;verticalLabelPosition=bottom;verticalAlign=top;align=center;html=1;shape=mxgraph.aws3.dynamo_db;fillColor=#2E73B8;gradientColor=none;" vertex="1" parent="OFhxYfGw3C2y7uMmttlE-23">
          <mxGeometry x="1050" y="190" width="72" height="81" as="geometry" />
        </mxCell>
        <mxCell id="OFhxYfGw3C2y7uMmttlE-27" value="" style="outlineConnect=0;dashed=0;verticalLabelPosition=bottom;verticalAlign=top;align=center;html=1;shape=mxgraph.aws3.rds;fillColor=#2E73B8;gradientColor=none;" vertex="1" parent="OFhxYfGw3C2y7uMmttlE-23">
          <mxGeometry x="1050" y="414.5" width="72" height="81" as="geometry" />
        </mxCell>
        <mxCell id="OFhxYfGw3C2y7uMmttlE-54" style="edgeStyle=orthogonalEdgeStyle;rounded=0;orthogonalLoop=1;jettySize=auto;html=1;" edge="1" parent="OFhxYfGw3C2y7uMmttlE-23" source="OFhxYfGw3C2y7uMmttlE-48" target="OFhxYfGw3C2y7uMmttlE-16">
          <mxGeometry relative="1" as="geometry">
            <Array as="points">
              <mxPoint x="930" y="270.87" />
              <mxPoint x="930" y="230.87" />
            </Array>
          </mxGeometry>
        </mxCell>
        <mxCell id="OFhxYfGw3C2y7uMmttlE-55" style="edgeStyle=orthogonalEdgeStyle;rounded=0;orthogonalLoop=1;jettySize=auto;html=1;" edge="1" parent="OFhxYfGw3C2y7uMmttlE-23" source="OFhxYfGw3C2y7uMmttlE-48" target="OFhxYfGw3C2y7uMmttlE-27">
          <mxGeometry relative="1" as="geometry">
            <Array as="points">
              <mxPoint x="940" y="340.87" />
              <mxPoint x="940" y="358.87" />
            </Array>
          </mxGeometry>
        </mxCell>
        <mxCell id="OFhxYfGw3C2y7uMmttlE-69" style="edgeStyle=orthogonalEdgeStyle;rounded=0;orthogonalLoop=1;jettySize=auto;html=1;" edge="1" parent="OFhxYfGw3C2y7uMmttlE-23" source="OFhxYfGw3C2y7uMmttlE-48" target="OFhxYfGw3C2y7uMmttlE-51">
          <mxGeometry relative="1" as="geometry">
            <Array as="points">
              <mxPoint x="445" y="360" />
              <mxPoint x="445" y="564" />
            </Array>
          </mxGeometry>
        </mxCell>
        <mxCell id="OFhxYfGw3C2y7uMmttlE-48" value="Private subnet" style="points=[[0,0],[0.25,0],[0.5,0],[0.75,0],[1,0],[1,0.25],[1,0.5],[1,0.75],[1,1],[0.75,1],[0.5,1],[0.25,1],[0,1],[0,0.75],[0,0.5],[0,0.25]];outlineConnect=0;gradientColor=none;html=1;whiteSpace=wrap;fontSize=12;fontStyle=0;container=1;pointerEvents=0;collapsible=0;recursiveResize=0;shape=mxgraph.aws4.group;grIcon=mxgraph.aws4.group_security_group;grStroke=0;strokeColor=#00A4A6;fillColor=#E6F6F7;verticalAlign=top;align=left;spacingLeft=30;fontColor=#147EBA;dashed=0;" vertex="1" parent="OFhxYfGw3C2y7uMmttlE-23">
          <mxGeometry x="560" y="200.87" width="310" height="210" as="geometry" />
        </mxCell>
        <mxCell id="OFhxYfGw3C2y7uMmttlE-35" value="ECS CLUSTER" style="points=[[0,0],[0.25,0],[0.5,0],[0.75,0],[1,0],[1,0.25],[1,0.5],[1,0.75],[1,1],[0.75,1],[0.5,1],[0.25,1],[0,1],[0,0.75],[0,0.5],[0,0.25]];outlineConnect=0;gradientColor=none;html=1;whiteSpace=wrap;fontSize=12;fontStyle=0;container=1;pointerEvents=0;collapsible=0;recursiveResize=0;shape=mxgraph.aws4.group;grIcon=mxgraph.aws4.group_ec2_instance_contents;strokeColor=#D86613;fillColor=none;verticalAlign=top;align=left;spacingLeft=30;fontColor=#D86613;dashed=0;" vertex="1" parent="OFhxYfGw3C2y7uMmttlE-48">
          <mxGeometry x="70" y="28.5" width="190" height="160" as="geometry" />
        </mxCell>
        <mxCell id="OFhxYfGw3C2y7uMmttlE-30" value="" style="sketch=0;points=[[0,0,0],[0.25,0,0],[0.5,0,0],[0.75,0,0],[1,0,0],[0,1,0],[0.25,1,0],[0.5,1,0],[0.75,1,0],[1,1,0],[0,0.25,0],[0,0.5,0],[0,0.75,0],[1,0.25,0],[1,0.5,0],[1,0.75,0]];outlineConnect=0;fontColor=#232F3E;fillColor=#ED7100;strokeColor=#ffffff;dashed=0;verticalLabelPosition=bottom;verticalAlign=top;align=center;html=1;fontSize=12;fontStyle=0;aspect=fixed;shape=mxgraph.aws4.resourceIcon;resIcon=mxgraph.aws4.ecs;" vertex="1" parent="OFhxYfGw3C2y7uMmttlE-35">
          <mxGeometry width="30" height="30" as="geometry" />
        </mxCell>
        <mxCell id="OFhxYfGw3C2y7uMmttlE-41" value="CREW AI AGENT" style="text;html=1;align=center;verticalAlign=middle;resizable=0;points=[];autosize=1;strokeColor=none;fillColor=none;" vertex="1" parent="OFhxYfGw3C2y7uMmttlE-35">
          <mxGeometry x="30" y="118" width="130" height="30" as="geometry" />
        </mxCell>
        <mxCell id="OFhxYfGw3C2y7uMmttlE-36" value="" style="sketch=0;points=[[0,0,0],[0.25,0,0],[0.5,0,0],[0.75,0,0],[1,0,0],[0,1,0],[0.25,1,0],[0.5,1,0],[0.75,1,0],[1,1,0],[0,0.25,0],[0,0.5,0],[0,0.75,0],[1,0.25,0],[1,0.5,0],[1,0.75,0]];outlineConnect=0;fontColor=#232F3E;fillColor=#ED7100;strokeColor=#ffffff;dashed=0;verticalLabelPosition=bottom;verticalAlign=top;align=center;html=1;fontSize=12;fontStyle=0;aspect=fixed;shape=mxgraph.aws4.resourceIcon;resIcon=mxgraph.aws4.fargate;" vertex="1" parent="OFhxYfGw3C2y7uMmttlE-35">
          <mxGeometry x="50" y="40" width="78" height="78" as="geometry" />
        </mxCell>
        <mxCell id="OFhxYfGw3C2y7uMmttlE-53" value="ECR CrewAI" style="text;html=1;align=center;verticalAlign=middle;resizable=0;points=[];autosize=1;strokeColor=none;fillColor=none;" vertex="1" parent="OFhxYfGw3C2y7uMmttlE-23">
          <mxGeometry x="620" y="558.87" width="100" height="30" as="geometry" />
        </mxCell>
        <mxCell id="OFhxYfGw3C2y7uMmttlE-57" style="edgeStyle=orthogonalEdgeStyle;rounded=0;orthogonalLoop=1;jettySize=auto;html=1;exitX=0;exitY=1;exitDx=0;exitDy=0;" edge="1" parent="OFhxYfGw3C2y7uMmttlE-23" source="OFhxYfGw3C2y7uMmttlE-35" target="OFhxYfGw3C2y7uMmttlE-37">
          <mxGeometry relative="1" as="geometry">
            <mxPoint x="725" y="389.87" as="sourcePoint" />
          </mxGeometry>
        </mxCell>
        <mxCell id="OFhxYfGw3C2y7uMmttlE-58" style="edgeStyle=orthogonalEdgeStyle;rounded=0;orthogonalLoop=1;jettySize=auto;html=1;" edge="1" parent="OFhxYfGw3C2y7uMmttlE-23" source="OFhxYfGw3C2y7uMmttlE-41" target="OFhxYfGw3C2y7uMmttlE-17">
          <mxGeometry relative="1" as="geometry" />
        </mxCell>
        <mxCell id="OFhxYfGw3C2y7uMmttlE-64" value="" style="group" vertex="1" connectable="0" parent="OFhxYfGw3C2y7uMmttlE-23">
          <mxGeometry x="170" y="407.5" width="160" height="312.5" as="geometry" />
        </mxCell>
        <mxCell id="OFhxYfGw3C2y7uMmttlE-51" value="Translation Group" style="fillColor=#EFF0F3;strokeColor=none;dashed=0;verticalAlign=top;fontStyle=0;fontColor=#232F3D;whiteSpace=wrap;html=1;" vertex="1" parent="OFhxYfGw3C2y7uMmttlE-64">
          <mxGeometry width="160" height="312.5" as="geometry" />
        </mxCell>
        <mxCell id="OFhxYfGw3C2y7uMmttlE-38" value="" style="sketch=0;points=[[0,0,0],[0.25,0,0],[0.5,0,0],[0.75,0,0],[1,0,0],[0,1,0],[0.25,1,0],[0.5,1,0],[0.75,1,0],[1,1,0],[0,0.25,0],[0,0.5,0],[0,0.75,0],[1,0.25,0],[1,0.5,0],[1,0.75,0]];outlineConnect=0;fontColor=#232F3E;fillColor=#01A88D;strokeColor=#ffffff;dashed=0;verticalLabelPosition=bottom;verticalAlign=top;align=center;html=1;fontSize=12;fontStyle=0;aspect=fixed;shape=mxgraph.aws4.resourceIcon;resIcon=mxgraph.aws4.bedrock;" vertex="1" parent="OFhxYfGw3C2y7uMmttlE-64">
          <mxGeometry x="41" y="122.5" width="78" height="78" as="geometry" />
        </mxCell>
        <mxCell id="OFhxYfGw3C2y7uMmttlE-39" value="" style="sketch=0;points=[[0,0,0],[0.25,0,0],[0.5,0,0],[0.75,0,0],[1,0,0],[0,1,0],[0.25,1,0],[0.5,1,0],[0.75,1,0],[1,1,0],[0,0.25,0],[0,0.5,0],[0,0.75,0],[1,0.25,0],[1,0.5,0],[1,0.75,0]];outlineConnect=0;fontColor=#232F3E;fillColor=#01A88D;strokeColor=#ffffff;dashed=0;verticalLabelPosition=bottom;verticalAlign=top;align=center;html=1;fontSize=12;fontStyle=0;aspect=fixed;shape=mxgraph.aws4.resourceIcon;resIcon=mxgraph.aws4.polly;" vertex="1" parent="OFhxYfGw3C2y7uMmttlE-64">
          <mxGeometry x="41" y="212.5" width="78" height="78" as="geometry" />
        </mxCell>
        <mxCell id="OFhxYfGw3C2y7uMmttlE-62" value="" style="outlineConnect=0;dashed=0;verticalLabelPosition=bottom;verticalAlign=top;align=center;html=1;shape=mxgraph.aws3.lambda_function;fillColor=#F58534;gradientColor=none;" vertex="1" parent="OFhxYfGw3C2y7uMmttlE-64">
          <mxGeometry x="45.5" y="33.5" width="69" height="72" as="geometry" />
        </mxCell>
        <mxCell id="OFhxYfGw3C2y7uMmttlE-70" style="edgeStyle=orthogonalEdgeStyle;rounded=0;orthogonalLoop=1;jettySize=auto;html=1;" edge="1" parent="OFhxYfGw3C2y7uMmttlE-23" source="OFhxYfGw3C2y7uMmttlE-51" target="OFhxYfGw3C2y7uMmttlE-28">
          <mxGeometry relative="1" as="geometry" />
        </mxCell>
        <mxCell id="OFhxYfGw3C2y7uMmttlE-46" value="FRONTEND" style="fillColor=#EFF0F3;strokeColor=none;dashed=0;verticalAlign=top;fontStyle=0;fontColor=#232F3D;whiteSpace=wrap;html=1;" vertex="1" parent="OFhxYfGw3C2y7uMmttlE-1">
          <mxGeometry x="100" y="18" width="300" height="142" as="geometry" />
        </mxCell>
        <mxCell id="OFhxYfGw3C2y7uMmttlE-9" value="" style="sketch=0;points=[[0,0,0],[0.25,0,0],[0.5,0,0],[0.75,0,0],[1,0,0],[0,1,0],[0.25,1,0],[0.5,1,0],[0.75,1,0],[1,1,0],[0,0.25,0],[0,0.5,0],[0,0.75,0],[1,0.25,0],[1,0.5,0],[1,0.75,0]];outlineConnect=0;fontColor=#232F3E;fillColor=#DD344C;strokeColor=#ffffff;dashed=0;verticalLabelPosition=bottom;verticalAlign=top;align=center;html=1;fontSize=12;fontStyle=0;aspect=fixed;shape=mxgraph.aws4.resourceIcon;resIcon=mxgraph.aws4.identity_and_access_management;" vertex="1" parent="OFhxYfGw3C2y7uMmttlE-1">
          <mxGeometry x="1030" y="970" width="78" height="78" as="geometry" />
        </mxCell>
        <mxCell id="OFhxYfGw3C2y7uMmttlE-10" value="" style="sketch=0;points=[[0,0,0],[0.25,0,0],[0.5,0,0],[0.75,0,0],[1,0,0],[0,1,0],[0.25,1,0],[0.5,1,0],[0.75,1,0],[1,1,0],[0,0.25,0],[0,0.5,0],[0,0.75,0],[1,0.25,0],[1,0.5,0],[1,0.75,0]];outlineConnect=0;fontColor=#232F3E;fillColor=#DD344C;strokeColor=#ffffff;dashed=0;verticalLabelPosition=bottom;verticalAlign=top;align=center;html=1;fontSize=12;fontStyle=0;aspect=fixed;shape=mxgraph.aws4.resourceIcon;resIcon=mxgraph.aws4.secrets_manager;" vertex="1" parent="OFhxYfGw3C2y7uMmttlE-1">
          <mxGeometry x="1160" y="970" width="78" height="78" as="geometry" />
        </mxCell>
        <mxCell id="OFhxYfGw3C2y7uMmttlE-22" value="" style="sketch=0;points=[[0,0,0],[0.25,0,0],[0.5,0,0],[0.75,0,0],[1,0,0],[0,1,0],[0.25,1,0],[0.5,1,0],[0.75,1,0],[1,1,0],[0,0.25,0],[0,0.5,0],[0,0.75,0],[1,0.25,0],[1,0.5,0],[1,0.75,0]];points=[[0,0,0],[0.25,0,0],[0.5,0,0],[0.75,0,0],[1,0,0],[0,1,0],[0.25,1,0],[0.5,1,0],[0.75,1,0],[1,1,0],[0,0.25,0],[0,0.5,0],[0,0.75,0],[1,0.25,0],[1,0.5,0],[1,0.75,0]];outlineConnect=0;fontColor=#232F3E;fillColor=#E7157B;strokeColor=#ffffff;dashed=0;verticalLabelPosition=bottom;verticalAlign=top;align=center;html=1;fontSize=12;fontStyle=0;aspect=fixed;shape=mxgraph.aws4.resourceIcon;resIcon=mxgraph.aws4.cloudwatch_2;" vertex="1" parent="OFhxYfGw3C2y7uMmttlE-1">
          <mxGeometry x="1280" y="970" width="78" height="78" as="geometry" />
        </mxCell>
        <mxCell id="OFhxYfGw3C2y7uMmttlE-33" value="" style="sketch=0;points=[[0,0,0],[0.25,0,0],[0.5,0,0],[0.75,0,0],[1,0,0],[0,1,0],[0.25,1,0],[0.5,1,0],[0.75,1,0],[1,1,0],[0,0.25,0],[0,0.5,0],[0,0.75,0],[1,0.25,0],[1,0.5,0],[1,0.75,0]];outlineConnect=0;fontColor=#232F3E;fillColor=#C925D1;strokeColor=#ffffff;dashed=0;verticalLabelPosition=bottom;verticalAlign=top;align=center;html=1;fontSize=12;fontStyle=0;aspect=fixed;shape=mxgraph.aws4.resourceIcon;resIcon=mxgraph.aws4.xray;" vertex="1" parent="OFhxYfGw3C2y7uMmttlE-1">
          <mxGeometry x="1394" y="970" width="78" height="78" as="geometry" />
        </mxCell>
        <mxCell id="OFhxYfGw3C2y7uMmttlE-20" value="" style="sketch=0;points=[[0,0,0],[0.25,0,0],[0.5,0,0],[0.75,0,0],[1,0,0],[0,1,0],[0.25,1,0],[0.5,1,0],[0.75,1,0],[1,1,0],[0,0.25,0],[0,0.5,0],[0,0.75,0],[1,0.25,0],[1,0.5,0],[1,0.75,0]];outlineConnect=0;fontColor=#232F3E;fillColor=#8C4FFF;strokeColor=#ffffff;dashed=0;verticalLabelPosition=bottom;verticalAlign=top;align=center;html=1;fontSize=12;fontStyle=0;aspect=fixed;shape=mxgraph.aws4.resourceIcon;resIcon=mxgraph.aws4.cloudfront;" vertex="1" parent="OFhxYfGw3C2y7uMmttlE-1">
          <mxGeometry x="140" y="70" width="78" height="78" as="geometry" />
        </mxCell>
        <mxCell id="OFhxYfGw3C2y7uMmttlE-21" value="" style="sketch=0;points=[[0,0,0],[0.25,0,0],[0.5,0,0],[0.75,0,0],[1,0,0],[0,1,0],[0.25,1,0],[0.5,1,0],[0.75,1,0],[1,1,0],[0,0.25,0],[0,0.5,0],[0,0.75,0],[1,0.25,0],[1,0.5,0],[1,0.75,0]];outlineConnect=0;fontColor=#232F3E;fillColor=#7AA116;strokeColor=#ffffff;dashed=0;verticalLabelPosition=bottom;verticalAlign=top;align=center;html=1;fontSize=12;fontStyle=0;aspect=fixed;shape=mxgraph.aws4.resourceIcon;resIcon=mxgraph.aws4.s3;" vertex="1" parent="OFhxYfGw3C2y7uMmttlE-1">
          <mxGeometry x="290" y="70" width="78" height="78" as="geometry" />
        </mxCell>
        <mxCell id="OFhxYfGw3C2y7uMmttlE-19" style="edgeStyle=orthogonalEdgeStyle;rounded=0;orthogonalLoop=1;jettySize=auto;html=1;" edge="1" parent="1" source="OFhxYfGw3C2y7uMmttlE-12" target="OFhxYfGw3C2y7uMmttlE-18">
          <mxGeometry relative="1" as="geometry" />
        </mxCell>
        <mxCell id="OFhxYfGw3C2y7uMmttlE-12" value="users" style="sketch=0;outlineConnect=0;gradientColor=none;fontColor=#545B64;strokeColor=none;fillColor=#879196;dashed=0;verticalLabelPosition=bottom;verticalAlign=top;align=center;html=1;fontSize=12;fontStyle=0;aspect=fixed;shape=mxgraph.aws4.illustration_users;pointerEvents=1" vertex="1" parent="1">
          <mxGeometry x="10" y="680" width="100" height="100" as="geometry" />
        </mxCell>
        <mxCell id="OFhxYfGw3C2y7uMmttlE-31" style="rounded=0;orthogonalLoop=1;jettySize=auto;html=1;entryX=0;entryY=0.5;entryDx=0;entryDy=0;entryPerimeter=0;" edge="1" parent="1" source="OFhxYfGw3C2y7uMmttlE-18" target="OFhxYfGw3C2y7uMmttlE-28">
          <mxGeometry relative="1" as="geometry">
            <mxPoint x="340" y="451.5" as="targetPoint" />
          </mxGeometry>
        </mxCell>
        <mxCell id="OFhxYfGw3C2y7uMmttlE-18" value="devices" style="sketch=0;outlineConnect=0;gradientColor=none;fontColor=#545B64;strokeColor=none;fillColor=#879196;dashed=0;verticalLabelPosition=bottom;verticalAlign=top;align=center;html=1;fontSize=12;fontStyle=0;aspect=fixed;shape=mxgraph.aws4.illustration_devices;pointerEvents=1" vertex="1" parent="1">
          <mxGeometry x="180" y="693.5" width="100" height="73" as="geometry" />
        </mxCell>
        <mxCell id="OFhxYfGw3C2y7uMmttlE-42" style="edgeStyle=orthogonalEdgeStyle;rounded=0;orthogonalLoop=1;jettySize=auto;html=1;entryX=0;entryY=0.5;entryDx=0;entryDy=0;entryPerimeter=0;" edge="1" parent="1" source="OFhxYfGw3C2y7uMmttlE-18" target="OFhxYfGw3C2y7uMmttlE-20">
          <mxGeometry relative="1" as="geometry">
            <Array as="points">
              <mxPoint x="230" y="179" />
            </Array>
          </mxGeometry>
        </mxCell>
        <mxCell id="OFhxYfGw3C2y7uMmttlE-52" value="EXTERNAL API" style="html=1;dashed=0;whiteSpace=wrap;" vertex="1" parent="1">
          <mxGeometry x="1840" y="580" width="100" height="50" as="geometry" />
        </mxCell>
        <mxCell id="OFhxYfGw3C2y7uMmttlE-56" style="edgeStyle=orthogonalEdgeStyle;rounded=0;orthogonalLoop=1;jettySize=auto;html=1;entryX=0;entryY=0.5;entryDx=0;entryDy=0;" edge="1" parent="1" source="OFhxYfGw3C2y7uMmttlE-48" target="OFhxYfGw3C2y7uMmttlE-52">
          <mxGeometry relative="1" as="geometry">
            <Array as="points">
              <mxPoint x="1125" y="550" />
              <mxPoint x="1560" y="550" />
              <mxPoint x="1560" y="605" />
            </Array>
          </mxGeometry>
        </mxCell>
        <mxCell id="OFhxYfGw3C2y7uMmttlE-68" value="DYNAMODB" style="text;html=1;align=center;verticalAlign=middle;resizable=0;points=[];autosize=1;strokeColor=none;fillColor=none;" vertex="1" parent="1">
          <mxGeometry x="1431" y="409" width="100" height="30" as="geometry" />
        </mxCell>
      </root>
    </mxGraphModel>
  </diagram>
</mxfile>
